<svg id="Layer_1" data-name="Layer 1" xmlns="http://www.w3.org/2000/svg" viewBox="0 0 604.33 148.09"><defs><style>.cls-1{fill:#fff;}.cls-2{fill:#ec1c24;}</style></defs><title>Artboard 1</title><path class="cls-1" d="M217.19,69.17l3.67-9.29h22l3.6,9.29h13.68L238.9,18.77H225.74L204,69.17ZM232,31.51l7.2,18.65H224.61Z"/><path class="cls-1" d="M284.69,58.51c-8,0-14-6.41-14-14.83s6.05-14.6,14-14.6c4.46,0,9.36,2.52,12.67,6.55l7.38-8.8a29.26,29.26,0,0,0-20.31-8.5c-15.34,0-26.93,10.94-26.93,25.49,0,14.76,11.31,25.92,26.5,25.92,7.42,0,15.41-3.67,20.81-9.22l-7.49-7.92C293.83,56.21,288.94,58.51,284.69,58.51Z"/><polygon class="cls-1" points="349.43 69.17 349.43 59.09 321.99 59.09 321.99 48.94 346.04 48.94 346.04 38.86 321.99 38.86 321.99 28.85 348.63 28.85 348.63 18.77 309.18 18.77 309.18 38.86 305.03 38.86 305.03 48.94 309.18 48.94 309.18 69.17 349.43 69.17"/><path class="cls-1" d="M398.92,36.33c0-11.23-7.42-17.57-20.31-17.57h-22V44.9h-4.15V55h4.15l0,14.19h12.82V55h9.15C391.5,55,398.92,48.14,398.92,36.33Zm-21,8.58h-8.5V28.85H378c5.62,0,8.86,2.66,8.86,7.92S383.58,44.91,378,44.91Z"/><path class="cls-1" d="M426.28,69.75c14.11,0,23-8.42,23-21.75V18.76H436.5V48c0,6.84-4.1,11-10.15,11s-10.51-4.18-10.51-11V18.76H403V48C403,61.32,412.09,69.75,426.28,69.75Z"/><polygon class="cls-1" points="489.52 49.88 466.26 18.77 454.96 18.77 454.96 69.17 466.98 69.17 466.98 38.14 490.17 69.17 501.48 69.17 501.48 18.77 489.52 18.77 489.52 49.88"/><path class="cls-1" d="M532.33,58.51c-8,0-14-6.41-14-14.83s6-14.62,14-14.62c4.46,0,9.36,2.52,12.67,6.55l7.42-8.79a29.26,29.26,0,0,0-20.31-8.5c-15.34,0-26.93,10.94-26.93,25.49,0,14.76,11.31,25.92,26.5,25.92,7.42,0,15.41-3.67,20.81-9.22L545,52.59C541.48,56.21,536.58,58.51,532.33,58.51Z"/><polygon class="cls-1" points="591.52 18.77 591.52 39.51 570.63 39.51 570.63 18.77 557.82 18.77 557.82 39.48 553.67 39.48 553.67 49.56 557.82 49.56 557.82 69.17 570.63 69.17 570.63 49.59 591.52 49.59 591.52 69.17 604.33 69.17 604.33 18.77 591.52 18.77"/><path class="cls-1" d="M182.74,92.23c0-2.45,2.23-3.67,5.54-3.67,4.1,0,10.8,2.16,16.13,5.26l4.82-10a37.77,37.77,0,0,0-19.87-5.62c-12.1,0-20.09,5.9-20.09,15.19,0,17.86,26.64,12.53,26.64,21.46,0,2.88-2.52,4.39-6.55,4.39-5.26,0-13-3-18.22-7.56l-5,9.86a37.58,37.58,0,0,0,23,8.06c11.23,0,20.16-5.33,20.16-15.41C209.34,96,182.74,100.94,182.74,92.23Z"/><polygon class="cls-1" points="214.18 89.14 227.23 89.14 227.23 129.17 240.05 129.17 240.05 89.14 253.24 89.14 253.24 78.77 214.18 78.77 214.18 89.14"/><path class="cls-1" d="M291.61,108c0,6.84-4.1,11-10.15,11S271,114.82,271,108V78.76H258.13V108c0,13.32,9.07,21.75,23.26,21.75s23-8.42,23-21.75V78.76H291.61Z"/><path class="cls-1" d="M332.36,78.76H310.69v50.4h21.17c16.2,0,27.29-10.3,27.29-25.2S348.2,78.76,332.36,78.76Zm.29,40.18H323.5v-30h8.57c8.14,0,14,6.12,14,15S340.5,118.94,332.65,118.94Z"/><rect class="cls-1" x="364.99" y="78.77" width="12.82" height="50.4"/><path class="cls-1" d="M410.74,78.33c-15.55,0-27.22,10.87-27.22,25.56s11.67,25.85,27.22,25.85S438,118.58,438,103.89,426.34,78.33,410.74,78.33Zm.12,40.69h0c-7.7,0-14.26-6.55-14.26-15s6.46-14.93,14.24-14.93,14,6.41,14,14.91S418.63,119,410.86,119Z"/><path class="cls-1" d="M455.46,92.23c0-2.45,2.23-3.67,5.54-3.67,4.1,0,10.8,2.16,16.13,5.26l4.82-10a37.77,37.77,0,0,0-19.87-5.62C450,78.2,442,84.1,442,93.39c0,17.86,26.64,12.53,26.64,21.46,0,2.88-2.52,4.39-6.55,4.39-5.26,0-13-3-18.22-7.56l-5,9.86a37.58,37.58,0,0,0,23,8.06c11.23,0,20.16-5.33,20.16-15.41C482.1,96,455.46,100.94,455.46,92.23Z"/><polygon class="cls-1" points="170.28 69.17 183.1 69.17 183.1 50.59 205.71 50.59 205.71 40.51 183.1 40.51 183.1 28.85 207.65 28.85 207.65 18.77 170.28 18.77 170.28 40.51 166.14 40.51 166.14 50.59 170.28 50.59 170.28 69.17"/><path class="cls-2" d="M74,0a74,74,0,1,0,74,74h0A74,74,0,0,0,74,0Z"/><path class="cls-1" d="M82.5,84.08a36.93,36.93,0,0,0-34.24,23.1,15.58,15.58,0,0,0-17.52,4.51A56.2,56.2,0,0,0,57,128v-.06a56.3,56.3,0,0,0,60.38-19A36.94,36.94,0,0,0,82.5,84.08Z"/><path class="cls-1" d="M74,17.76A56.27,56.27,0,0,0,17.74,74v.08H130.32A56.27,56.27,0,0,0,74.1,17.76ZM65.37,57.62,58,65l-7.41-7.41L43.14,65l-7.4-7.41,7.41-7.41-7.41-7.4,7.41-7.41,7.41,7.41L58,35.4l7.41,7.41L58,50.22Zm47,0L105,65l-7.41-7.41L90.14,65l-7.4-7.41,7.41-7.41-7.41-7.4,7.41-7.41,7.41,7.41L105,35.4l7.41,7.41L105,50.22Z"/></svg>